<svg width="104" height="44" viewBox="0 0 104 44" fill="none" xmlns="http://www.w3.org/2000/svg">
    <path d="M36.126 29.315c.652-.047 1.087-.18 1.31-.408.223-.228.335-.689.335-1.389v-8.691c0-.741-.112-1.208-.341-1.4-.223-.193-.658-.327-1.304-.397v-.502h6.361c1.686 0 2.973.274 3.848.817.881.543 1.316 1.476 1.316 2.8 0 .648-.17 1.254-.517 1.82-.347.566-.91 1.02-1.703 1.365-.6.245-1.199.39-1.798.443-.6.053-1.486.076-2.667.076v3.67c0 .723.123 1.195.37 1.417.247.221.7.35 1.369.373v.502h-6.58v-.496zm7.207-6.545c.623-.397.934-1.248.934-2.56 0-.9-.152-1.617-.452-2.17-.305-.55-.881-.823-1.739-.823-.393 0-.675.046-.846.14-.17.093-.258.274-.258.542v5.28c1.18-.024 1.968-.158 2.361-.409zM46.788 29.315a1.507 1.507 0 0 0 1.15-.642c.189-.25.453-.799.8-1.65l4.394-10.757h.552l4.411 10.325c.494 1.16.864 1.907 1.11 2.24.247.338.594.496 1.046.484v.502h-6.403v-.502c.646-.023 1.07-.082 1.27-.163.205-.082.305-.298.305-.636 0-.152-.053-.385-.153-.7a15.389 15.389 0 0 0-.259-.671l-.505-1.19h-4.44c-.288.782-.476 1.29-.559 1.528-.176.508-.258.875-.258 1.103 0 .28.188.484.57.612.223.07.564.111 1.016.117v.502h-4.036v-.502h-.011zm7.425-4.136-1.904-4.55h-.164l-1.786 4.55h3.853zM60.985 29.315c.494-.035.852-.105 1.075-.21.388-.198.582-.56.582-1.085v-9.695c0-.508-.182-.857-.552-1.056-.212-.116-.582-.192-1.105-.239v-.502h6.045c2.438 0 4.3.648 5.58 1.937 1.163 1.178 1.75 2.76 1.75 4.742 0 1.78-.587 3.285-1.756 4.521-1.321 1.389-3.107 2.083-5.369 2.083h-6.25v-.496zm5.076-.432c.129.181.41.269.845.269 1.17 0 2.133-.415 2.89-1.231.752-.823 1.128-2.404 1.128-4.737 0-1.388-.205-2.584-.61-3.582-.658-1.604-1.763-2.409-3.325-2.409-.517 0-.852.111-1.005.327-.1.14-.152.414-.152.817v9.671c.017.403.094.695.229.875zM75.312 29.315c.67-.035 1.128-.158 1.368-.373.247-.216.37-.689.37-1.418v-8.697c0-.759-.146-1.249-.434-1.482-.194-.152-.629-.257-1.304-.315v-.502h6.362c1.321 0 2.39.14 3.207.415 1.58.554 2.373 1.557 2.373 3.004 0 1.067-.417 1.907-1.245 2.526a4.869 4.869 0 0 1-2.015.88l4.206 5.595c.111.151.223.256.346.303.124.046.27.076.453.093v.473h-4.13l-4.611-6.143h-.012v3.85c0 .688.118 1.155.347 1.394.229.24.693.374 1.392.397v.502H75.3v-.502h.012zm7.724-6.82c.558-.343.834-1.13.834-2.373 0-.764-.105-1.365-.317-1.803-.364-.746-1.034-1.126-2.009-1.126-.528 0-.875.064-1.04.199-.164.128-.246.35-.246.647v5c1.292-.018 2.22-.199 2.778-.543zM89.633 29.315a1.507 1.507 0 0 0 1.152-.642c.188-.25.452-.799.799-1.65l4.393-10.757h.552l4.412 10.325c.493 1.16.863 1.907 1.11 2.24.247.338.593.496 1.046.484v.502h-6.403v-.502c.646-.023 1.07-.082 1.269-.163.205-.082.305-.298.305-.636 0-.152-.053-.385-.153-.7a15.389 15.389 0 0 0-.258-.671l-.505-1.19h-4.44c-.289.782-.477 1.29-.559 1.528-.176.508-.258.875-.258 1.103 0 .28.188.484.57.612.223.07.563.111 1.016.117v.502h-4.036v-.502h-.012zm7.425-4.136-1.903-4.55h-.165l-1.785 4.55h3.853zM33.924 15.986s-1.486 1.184-1.486 2.91c0 1.727 1.656 4.008 1.656 7.345 0 3.337-2.42 5.78-7.178 5.78s-5.692-2.87-5.692-5.909v-12.11c0-1.306.3-2.07 1.233-2.66.934-.589 3.824-2.193 3.824-2.193v18.573c0 1.138.976 2.445.976 2.445s1.697-1.056 1.697-3.168c0-2.111-1.192-3.838-1.192-6.416.005-2.573 2.678-4.346 6.162-4.597z" fill="#000"/>
    <path d="M21.558 4.506s-1.486 2.741-1.486 7.385c0 4.643.041 10.89.041 14.268s.041 8.36 1.357 10.174a2.883 2.883 0 0 0 4.547.297c1.04-1.237.634-3.04-.852-3.797-1.486-.759-4.547-1.984-4.547-4.854 0-3.844-.464-14.414-.205-17.36.211-2.409.211-2.695 1.145-6.113z" fill="#EE6825"/>
    <path d="M16.418 9.032s1.909 2.27 1.909 10.034c0 7.77-.928 9.899-2.097 11.375-1.163 1.482-2.802 1.715-2.931 3.284-.118 1.447.657 2.572 1.862 2.91 1.456.415 3.348-.14 3.489-3.977.14-3.839.264-11.965.082-15.476-.188-3.512-1.286-6.837-2.314-8.15z" fill="#FFCA5A"/>
    <path d="m19.449.97.329 30.912s.13 3.92 1.316 5.034c1.186 1.108 2.76 2.35 1.973 4.445-.787 2.088-4.076 2.287-5.327.653-1.252-1.633-.2-3.465.593-4.637.787-1.179.922-4.51.852-5.49-.065-.98.264-30.916.264-30.916z" fill="#673315"/>
    <path d="M15.32 14.76s-4.088.718-4.47 3.92c-.33 2.742 1.838 3.14 1.774 7.514-.053 3.465-4.27 6.866-4.27 6.866s8.61-.718 8.94-7.385c.329-6.668-3.22-6.008-1.974-10.914z" fill="#000"/>
    <path d="M6.973 17.573s4.406 2.286 4.54 8.172c.124 5.88-9.08 8.36-8.094 13.003 0 0-5.128-3.985-1.774-7.187 3.354-3.203 5.68-5.49 5.85-7.776.265-3.53-.657-3.004-.722-4.183-.064-1.178.2-2.03.2-2.03z" fill="#000"/>
    <path d="M5.986 9.272s.194 10.651-.065 13.854C5.657 26.328 3.748 28.55 0 31.234c0 0 1.116-1.37 1.116-7.257V13.588c0-1.114.065-2.683 4.87-4.316z" fill="#000"/>
</svg>
